<svg width="27" height="27" viewBox="0 0 27 27" fill="none" xmlns="http://www.w3.org/2000/svg">
<g clip-path="url(#clip0)">
<path d="M15.2605 26.0217H11.1613C10.4766 26.0217 9.91963 25.4659 9.91963 24.7825V15.5545H7.52806C6.84336 15.5545 6.28638 14.9984 6.28638 14.3153V10.3611C6.28638 9.67771 6.84336 9.12182 7.52806 9.12182H9.91963V7.1417C9.91963 5.17834 10.5373 3.50794 11.7058 2.31137C12.8795 1.10934 14.5198 0.474121 16.4493 0.474121L19.5756 0.479189C20.2591 0.480358 20.8151 1.03625 20.8151 1.71844V5.38982C20.8151 6.07319 20.2583 6.62908 19.5738 6.62908L17.4689 6.62986C16.827 6.62986 16.6635 6.75831 16.6286 6.79768C16.571 6.86298 16.5024 7.04756 16.5024 7.55726V9.12163H19.4156C19.6349 9.12163 19.8474 9.17562 20.03 9.27736C20.4239 9.49703 20.6688 9.91239 20.6688 10.3613L20.6673 14.3155C20.6673 14.9984 20.1103 15.5543 19.4256 15.5543H16.5024V24.7825C16.5024 25.4659 15.9452 26.0217 15.2605 26.0217ZM11.4203 24.524H15.0016V14.884C15.0016 14.4277 15.3736 14.0566 15.8306 14.0566H19.1666L19.168 10.6195H15.8304C15.3734 10.6195 15.0016 10.2484 15.0016 9.79213V7.55726C15.0016 6.97213 15.0611 6.30669 15.5037 5.80655C16.0384 5.20193 16.8811 5.13215 17.4685 5.13215L19.3145 5.13137V1.97651L16.4481 1.97183C13.3472 1.97183 11.4203 3.95293 11.4203 7.1417V9.79213C11.4203 10.2482 11.0484 10.6195 10.5914 10.6195H7.78702V14.0566H10.5914C11.0484 14.0566 11.4203 14.4277 11.4203 14.884V24.524ZM19.5726 1.9769H19.5728H19.5726Z" fill="#02182B"/>
</g>
<defs>
<clipPath id="clip0">
<rect width="25.5476" height="25.5476" fill="white" transform="translate(0.761963 0.523926)"/>
</clipPath>
</defs>
</svg>
