<svg width="26" height="27" viewBox="0 0 26 27" fill="none" xmlns="http://www.w3.org/2000/svg">
<g clip-path="url(#clip0)">
<path d="M18.6321 0.523926H6.91549C3.10223 0.523926 0 3.62615 0 7.43942V19.1562C0 22.9693 3.10223 26.0715 6.91549 26.0715H18.6323C22.4453 26.0715 25.5476 22.9693 25.5476 19.1562V7.43942C25.5476 3.62615 22.4453 0.523926 18.6321 0.523926V0.523926ZM24.0499 19.1562C24.0499 22.1434 21.6195 24.5738 18.6321 24.5738H6.91549C3.92807 24.5738 1.49771 22.1434 1.49771 19.1562V7.43942C1.49771 4.452 3.92807 2.02163 6.91549 2.02163H18.6323C21.6195 2.02163 24.0499 4.452 24.0499 7.43942V19.1562Z" fill="#E71D36"/>
<path d="M12.7738 6.31226C8.92194 6.31226 5.78833 9.44586 5.78833 13.2977C5.78833 17.1496 8.92194 20.2832 12.7738 20.2832C16.6257 20.2832 19.7593 17.1496 19.7593 13.2977C19.7593 9.44586 16.6257 6.31226 12.7738 6.31226ZM12.7738 18.7855C9.74798 18.7855 7.28604 16.3237 7.28604 13.2977C7.28604 10.2719 9.74798 7.80996 12.7738 7.80996C15.7998 7.80996 18.2616 10.2719 18.2616 13.2977C18.2616 16.3237 15.7998 18.7855 12.7738 18.7855Z" fill="#E71D36"/>
<path d="M19.9262 3.8313C18.7879 3.8313 17.8621 4.75733 17.8621 5.89542C17.8621 7.03371 18.7879 7.95974 19.9262 7.95974C21.0645 7.95974 21.9905 7.03371 21.9905 5.89542C21.9905 4.75713 21.0645 3.8313 19.9262 3.8313ZM19.9262 6.46184C19.6139 6.46184 19.3598 6.20767 19.3598 5.89542C19.3598 5.58298 19.6139 5.32901 19.9262 5.32901C20.2386 5.32901 20.4928 5.58298 20.4928 5.89542C20.4928 6.20767 20.2386 6.46184 19.9262 6.46184Z" fill="#E71D36"/>
</g>
<defs>
<clipPath id="clip0">
<rect width="25.5476" height="25.5476" fill="white" transform="translate(0 0.523926)"/>
</clipPath>
</defs>
</svg>
