<svg width="34" height="33" viewBox="0 0 34 33" fill="none" xmlns="http://www.w3.org/2000/svg">
<g clip-path="url(#clip0)">
<path d="M32.8272 5.94578C32.591 5.78599 32.2792 5.79408 32.0521 5.9666C31.8222 6.14072 31.449 6.29045 31.0247 6.41326C32.1863 5.05718 32.2103 4.15063 32.1966 3.93723C32.1811 3.69525 32.0349 3.4809 31.8156 3.37757C31.5954 3.27495 31.3375 3.29927 31.1416 3.44155C29.7479 4.4543 28.3603 4.67489 27.5262 4.69952C26.2315 3.46816 24.5529 2.79321 22.768 2.79321C18.931 2.79321 15.8093 5.95622 15.8093 9.84391C15.8093 10.1587 15.8301 10.4728 15.871 10.7843C9.32058 10.6728 4.00406 4.40267 3.94918 4.33671C3.81014 4.17011 3.59904 4.07945 3.38074 4.10027C3.16441 4.11911 2.97049 4.24255 2.86201 4.43061C1.01548 7.63424 2.14352 10.4611 3.27614 12.1546C3.15919 12.0851 3.06338 12.0211 2.99781 11.9727C2.79771 11.8239 2.53071 11.7992 2.30694 11.9094C2.08278 12.0198 1.93954 12.2459 1.93534 12.4956C1.8853 15.5677 3.32089 17.3652 4.71574 18.3838C4.56473 18.4046 4.42308 18.4767 4.31683 18.5924C4.15704 18.7658 4.10082 19.011 4.16971 19.2367C5.137 22.403 7.48277 23.5245 9.03181 23.9215C5.89834 26.2858 1.35684 25.5141 1.30648 25.5046C1.00536 25.4517 0.703979 25.6104 0.580219 25.8918C0.456778 26.1727 0.541258 26.5021 0.785531 26.6882C4.12552 29.2373 8.1201 29.8021 11.0053 29.8021C13.1871 29.8021 14.7342 29.4789 14.883 29.4468C29.4373 25.9976 29.8987 12.6995 29.8688 10.4333C32.5991 7.89131 33.0285 6.91562 33.0954 6.67294C33.1708 6.3983 33.063 6.10596 32.8272 5.94578ZM28.7445 9.661C28.5961 9.79743 28.5178 9.99428 28.5315 10.1956C28.5338 10.2314 28.7566 13.8358 27.1504 17.8521C25.0044 23.2183 20.7737 26.6837 14.5893 28.1492C14.523 28.1632 8.80205 29.3481 3.7799 26.9595C5.92692 26.8694 8.90022 26.2647 10.9924 23.916C11.1671 23.7201 11.2087 23.4173 11.1012 23.178C10.9936 22.9392 10.7549 22.7635 10.4931 22.7635C10.4918 22.7635 10.4905 22.7635 10.4886 22.7635C10.3129 22.7635 7.28402 22.7408 5.83276 19.8156C6.41967 19.8409 7.12129 19.8063 7.68675 19.5458C7.94725 19.4256 8.10119 19.1575 8.06904 18.8727C8.03689 18.5878 7.82578 18.3583 7.5451 18.2992C7.38238 18.2647 3.87501 17.482 3.33426 13.6714C3.8731 13.8958 4.54481 14.0697 5.21294 13.9696C5.46957 13.9313 5.67972 13.7468 5.75242 13.4977C5.82487 13.2489 5.74561 12.9801 5.54972 12.8096C5.39801 12.6778 2.09112 9.73638 3.6054 5.93572C5.39801 7.80307 10.5102 12.4527 16.7093 12.0974C16.9071 12.086 17.0896 11.9866 17.2071 11.8268C17.3244 11.667 17.3644 11.4634 17.316 11.2712C17.199 10.8054 17.1396 10.3253 17.1396 9.84397C17.1396 6.68974 19.6644 4.1237 22.768 4.1237C24.2858 4.1237 25.7094 4.72945 26.7768 5.8296C26.8992 5.95597 27.0668 6.02835 27.2429 6.03166C27.8578 6.03752 28.8702 5.97125 30.0142 5.54573C29.6731 5.94521 29.196 6.41294 28.5289 6.93688C28.2983 7.11813 28.2135 7.42931 28.3203 7.70249C28.4275 7.9763 28.7058 8.1494 28.993 8.12311C29.1274 8.11241 29.7793 8.05492 30.5433 7.89997C30.1055 8.36534 29.5219 8.94614 28.7445 9.661Z" fill="#02182B"/>
</g>
<defs>
<clipPath id="clip0">
<rect width="32.5952" height="32.5952" fill="white" transform="translate(0.523926)"/>
</clipPath>
</defs>
</svg>
