<svg width="24" height="25" viewBox="0 0 24 25" fill="none" xmlns="http://www.w3.org/2000/svg">
<g clip-path="url(#clip0)">
<path d="M13.85 24.3177H10.0903C9.46226 24.3177 8.9514 23.8079 8.9514 23.1811V14.7173H6.75788C6.12987 14.7173 5.61902 14.2073 5.61902 13.5807V9.95395C5.61902 9.32718 6.12987 8.81732 6.75788 8.81732H8.9514V7.00117C8.9514 5.2004 9.51796 3.66833 10.5896 2.57085C11.6662 1.46836 13.1706 0.885742 14.9403 0.885742L17.8077 0.89039C18.4346 0.891463 18.9446 1.40132 18.9446 2.02702V5.39437C18.9446 6.02115 18.4339 6.531 17.8061 6.531L15.8755 6.53172C15.2868 6.53172 15.1368 6.64953 15.1048 6.68564C15.0519 6.74553 14.9891 6.91483 14.9891 7.38232V8.81714H17.661C17.8622 8.81714 18.0571 8.86666 18.2245 8.95998C18.5858 9.16146 18.8104 9.54242 18.8104 9.95413L18.809 13.5809C18.809 14.2073 18.2982 14.7172 17.6702 14.7172H14.9891V23.1811C14.9891 23.8079 14.478 24.3177 13.85 24.3177ZM10.3278 22.9441H13.6125V14.1024C13.6125 13.6838 13.9537 13.3435 14.3729 13.3435H17.4326L17.4339 10.191H14.3727C13.9536 10.191 13.6125 9.85062 13.6125 9.43212V7.38232C13.6125 6.84564 13.6671 6.23531 14.073 5.77659C14.5635 5.22204 15.3364 5.15803 15.8752 5.15803L17.5682 5.15732V2.26372L14.9393 2.25943C12.0952 2.25943 10.3278 4.07646 10.3278 7.00117V9.43212C10.3278 9.85044 9.98673 10.191 9.56758 10.191H6.99539V13.3435H9.56758C9.98673 13.3435 10.3278 13.6838 10.3278 14.1024V22.9441ZM17.805 2.26407H17.8052H17.805Z" fill="#F2F2F2"/>
</g>
<defs>
<clipPath id="clip0">
<rect width="23.432" height="23.432" fill="white" transform="translate(0.552002 0.931396)"/>
</clipPath>
</defs>
</svg>
