<svg width="24" height="25" viewBox="0 0 24 25" fill="none" xmlns="http://www.w3.org/2000/svg">
<g clip-path="url(#clip0)">
<path d="M17.0891 0.931396H6.34282C2.84533 0.931396 0 3.77673 0 7.27421V18.0207C0 21.518 2.84533 24.3633 6.34282 24.3633H17.0893C20.5866 24.3633 23.432 21.518 23.432 18.0207V7.27421C23.432 3.77673 20.5866 0.931396 17.0891 0.931396V0.931396ZM22.0583 18.0207C22.0583 20.7606 19.8292 22.9897 17.0891 22.9897H6.34282C3.60278 22.9897 1.37368 20.7606 1.37368 18.0207V7.27421C1.37368 4.53418 3.60278 2.30508 6.34282 2.30508H17.0893C19.8292 2.30508 22.0583 4.53418 22.0583 7.27421V18.0207Z" fill="#F2F2F2"/>
<path d="M11.716 6.24048C8.18307 6.24048 5.30896 9.11459 5.30896 12.6475C5.30896 16.1804 8.18307 19.0545 11.716 19.0545C15.2488 19.0545 18.123 16.1804 18.123 12.6475C18.123 9.11459 15.2488 6.24048 11.716 6.24048ZM11.716 17.6808C8.94071 17.6808 6.68264 15.4229 6.68264 12.6475C6.68264 9.87222 8.94071 7.61416 11.716 7.61416C14.4914 7.61416 16.7493 9.87222 16.7493 12.6475C16.7493 15.4229 14.4914 17.6808 11.716 17.6808Z" fill="#F2F2F2"/>
<path d="M18.2761 3.96509C17.2321 3.96509 16.3829 4.81443 16.3829 5.85828C16.3829 6.90231 17.2321 7.75165 18.2761 7.75165C19.3202 7.75165 20.1695 6.90231 20.1695 5.85828C20.1695 4.81425 19.3202 3.96509 18.2761 3.96509ZM18.2761 6.37779C17.9897 6.37779 17.7566 6.14467 17.7566 5.85828C17.7566 5.57171 17.9897 5.33877 18.2761 5.33877C18.5627 5.33877 18.7958 5.57171 18.7958 5.85828C18.7958 6.14467 18.5627 6.37779 18.2761 6.37779Z" fill="#F2F2F2"/>
</g>
<defs>
<clipPath id="clip0">
<rect width="23.432" height="23.432" fill="white" transform="translate(0 0.931396)"/>
</clipPath>
</defs>
</svg>
