<svg width="45" height="47" viewBox="0 0 45 47" fill="none" xmlns="http://www.w3.org/2000/svg">
<path d="M29.2831 47H15.6618C7.05882 47 0 39.8381 0 31.1095V15.8905C0 7.1619 7.05882 0 15.6618 0H29.2831C37.886 0 44.9449 7.1619 44.9449 15.8905V31.0536C45 39.8381 37.9412 47 29.2831 47Z" fill="#E71D36"/>
<path d="M29.2831 47H15.6618C7.05882 47 0 39.8381 0 31.1095V15.8905C0 7.1619 7.05882 0 15.6618 0H29.2831C37.886 0 44.9449 7.1619 44.9449 15.8905V31.0536C45 39.8381 37.9412 47 29.2831 47Z" fill="url(#paint0_linear)"/>
<path d="M32.8126 24.2274L29.6692 24.3393C28.4008 24.3952 27.4082 25.4024 27.4633 26.6333L27.4082 29.7667C27.4082 30.4381 27.1325 32.6202 23.7685 32.7321C21.5075 32.7881 18.9707 32.7881 17.4266 31.2774C15.6619 29.4869 15.4413 26.0178 15.6067 23.444C15.9928 16.1702 19.9082 15.8905 27.6288 16.0024C28.1251 16.0024 28.6214 16.0024 29.1178 16.0024C30.0553 16.0024 31.2134 16.0583 32.206 16.0583C33.5295 16.1143 34.6325 15.0512 34.5773 13.7083L34.467 10.575C34.4119 9.39999 33.4744 8.3369 32.3163 8.28095C31.2685 8.22499 30.1656 8.22499 29.1729 8.22499C28.7317 8.22499 28.2906 8.22499 27.7942 8.22499C24.5406 8.16904 19.9082 7.77738 16.0479 9.56785C13.6766 10.6309 11.8016 12.3095 10.4781 14.4357C9.04423 16.7298 8.21703 19.5833 8.05159 22.9964C7.7207 28.9833 9.04423 33.5155 12.0222 36.5369C12.5736 37.0964 13.1251 37.544 13.7317 37.9917C17.592 40.6214 22.1692 40.3417 24.0994 40.2857C31.5442 40.0619 35.3494 34.7464 35.2391 29.6548V26.4655C35.0736 25.1226 34.0258 24.1714 32.8126 24.2274Z" fill="white"/>
<path opacity="0.65" d="M32.8126 24.2274L29.6692 24.3393C28.4008 24.3952 27.4082 25.4024 27.4633 26.6333L27.4082 29.7667C27.4082 30.4381 27.1325 32.6202 23.7685 32.7321C21.5075 32.7881 18.9707 32.7881 17.4266 31.2774C15.6619 29.4869 15.4413 26.0178 15.6067 23.444C15.9928 16.1702 19.9082 15.8905 27.6288 16.0024C28.1251 16.0024 28.6214 16.0024 29.1178 16.0024C30.0553 16.0024 31.2134 16.0583 32.206 16.0583C33.5295 16.1143 34.6325 15.0512 34.5773 13.7083L34.467 10.575C34.4119 9.39999 33.4744 8.3369 32.3163 8.28095C31.2685 8.22499 30.1656 8.22499 29.1729 8.22499C28.7317 8.22499 28.2906 8.22499 27.7942 8.22499C24.5406 8.16904 19.9082 7.77738 16.0479 9.56785C13.6766 10.6309 11.8016 12.3095 10.4781 14.4357C9.04423 16.7298 8.21703 19.5833 8.05159 22.9964C7.7207 28.9833 9.04423 33.5155 12.0222 36.5369C12.5736 37.0964 13.1251 37.544 13.7317 37.9917C17.592 40.6214 22.1692 40.3417 24.0994 40.2857C31.5442 40.0619 35.3494 34.7464 35.2391 29.6548V26.4655C35.0736 25.1226 34.0258 24.1714 32.8126 24.2274Z" fill="url(#paint1_linear)"/>
<path d="M7.83084 24.1154C7.72055 29.4869 9.09922 33.6833 11.8566 36.4809C12.2978 36.9285 12.7389 37.2642 13.1801 37.6L16.6544 30.6059L16.875 30.494C15.6066 28.5916 15.4963 25.6262 15.6066 23.3321C15.8823 18.8 17.4264 17.0095 20.4595 16.2821C16.7647 16.8976 9.87128 18.6881 7.83084 24.1154Z" fill="white"/>
<path d="M13.2354 37.6C13.3456 37.7119 13.5111 37.8238 13.6214 37.8798C16.489 39.8381 19.7979 40.2298 22.114 40.2298C26.7464 39.1107 27.353 32.2845 27.4081 29.9905C27.2979 30.8857 26.7464 32.5083 23.7684 32.6202C21.5074 32.6762 18.9706 32.6762 17.4265 31.1655C17.2059 30.9417 17.0405 30.7179 16.8751 30.4941L16.6545 30.606L13.2354 37.6Z" fill="white"/>
<path d="M36.3419 26.1298L32.261 21.5417C31.7096 20.9262 30.7721 20.9262 30.2206 21.5417L26.1397 26.1298C25.3125 27.025 25.9743 28.4798 27.1875 28.4798H27.5184V29.7107C27.5184 29.8226 27.5184 29.9345 27.5184 30.0464C27.2978 32.2845 26.7463 39.1667 22.0588 40.2857C22.8309 40.2857 23.4375 40.2857 23.9338 40.2298C31.3787 40.006 35.1838 34.6905 35.0735 29.5988V28.4798H35.2941C36.5074 28.4798 37.1691 27.025 36.3419 26.1298Z" fill="white"/>
<path opacity="0.65" d="M13.2354 37.6C13.3456 37.7119 13.5111 37.8238 13.6214 37.8798C16.489 39.8381 19.7979 40.2298 22.114 40.2298C26.7464 39.1107 27.353 32.2845 27.4081 29.9905C27.2979 30.8857 26.7464 32.5083 23.7684 32.6202C21.5074 32.6762 18.9706 32.6762 17.4265 31.1655C17.2059 30.9417 17.0405 30.7179 16.8751 30.4941L16.6545 30.606L13.2354 37.6Z" fill="url(#paint2_linear)"/>
<defs>
<linearGradient id="paint0_linear" x1="-11.1092" y1="-4.71136" x2="104.915" y2="89.9191" gradientUnits="userSpaceOnUse">
<stop stop-color="#090909" stop-opacity="0"/>
<stop offset="1" stop-color="#1B147E" stop-opacity="0.8"/>
</linearGradient>
<linearGradient id="paint1_linear" x1="30.8727" y1="17.4694" x2="-8.52432" y2="48.5334" gradientUnits="userSpaceOnUse">
<stop stop-color="#090909" stop-opacity="0"/>
<stop offset="1" stop-color="#177CAA" stop-opacity="0.8"/>
</linearGradient>
<linearGradient id="paint2_linear" x1="19.592" y1="35.1617" x2="31.9212" y2="35.1617" gradientUnits="userSpaceOnUse">
<stop stop-color="#090909" stop-opacity="0"/>
<stop offset="1" stop-color="#177CAA" stop-opacity="0.8"/>
</linearGradient>
</defs>
</svg>
