<svg width="218" height="62" viewBox="0 0 218 62" fill="none" xmlns="http://www.w3.org/2000/svg">
<path d="M148.867 19.7809C148.488 19.3381 147.958 19.1167 147.353 19.1167H146.141C145.157 19.1167 144.399 19.7809 144.248 20.6667L141.673 34.8381L134.48 20.15C134.177 19.4857 133.496 19.0428 132.738 19.0428H130.845C129.861 19.0428 129.104 19.7071 128.952 20.5928L125.242 41.1857C125.166 41.7762 125.318 42.2928 125.696 42.7357C126.075 43.1786 126.605 43.4 127.211 43.4H128.422C129.407 43.4 130.164 42.7357 130.315 41.85L132.89 27.7524L140.083 42.3667C140.386 43.0309 141.068 43.4738 141.825 43.4738H143.718C144.702 43.4738 145.46 42.8095 145.611 41.9238L149.321 21.3309C149.397 20.8143 149.246 20.2238 148.867 19.7809Z" fill="white"/>
<path d="M165.223 19.1166H154.319C153.334 19.1166 152.577 19.7809 152.426 20.6666L148.715 41.2595C148.64 41.85 148.791 42.3666 149.17 42.8095C149.548 43.2523 150.078 43.4738 150.684 43.4738H161.588C162.572 43.4738 163.33 42.8095 163.481 41.9238L163.557 41.4071C163.632 40.8166 163.481 40.3 163.102 39.8571C162.724 39.4143 162.194 39.1928 161.588 39.1928H154.167L155.227 33.2881H162.345C163.33 33.2881 164.087 32.6238 164.238 31.7381L164.314 31.4428C164.39 30.8524 164.238 30.3357 163.86 29.8928C163.481 29.45 162.951 29.2285 162.345 29.2285H155.985L157.045 23.4714H165.147C166.131 23.4714 166.888 22.8071 167.04 21.9214L167.116 21.4785C167.191 20.8881 167.04 20.3714 166.661 19.9285C166.358 19.3381 165.828 19.1166 165.223 19.1166Z" fill="white"/>
<path d="M200.13 20.0024C199.751 19.4119 199.145 19.1167 198.464 19.1167H197.328C196.495 19.1167 195.738 19.6333 195.435 20.3714L189.226 35.9452L187.787 20.8881C187.712 19.8548 186.803 19.1167 185.743 19.1167H183.698C182.865 19.1167 182.184 19.5595 181.805 20.2976L174.688 35.8714L174.158 20.9619C174.082 19.8548 173.249 19.0428 172.113 19.0428H170.75C170.22 19.0428 169.614 19.2643 169.236 19.7071C168.857 20.15 168.63 20.6667 168.706 21.1833L170.22 41.6286C170.296 42.6619 171.204 43.4738 172.265 43.4738H174.763C175.596 43.4738 176.278 43.0309 176.656 42.2928L183.547 27.3095L184.986 41.6286C185.061 42.6619 185.97 43.4 187.03 43.4H189.529C190.362 43.4 191.119 42.9571 191.422 42.219L200.357 21.7738C200.584 21.2571 200.508 20.519 200.13 20.0024Z" fill="white"/>
<path d="M217.849 23.25C217.47 22.2905 216.864 21.4047 216.031 20.7405C214.593 19.4857 212.548 18.8214 209.822 18.8214C207.55 18.8214 205.582 19.3381 203.992 20.3714C202.326 21.4047 201.341 22.8809 201.039 24.6524C200.963 25.169 200.887 25.7595 200.887 26.2762C200.887 27.5309 201.19 28.6381 201.796 29.5238C202.401 30.3357 203.159 31 203.992 31.4428C204.825 31.8857 205.809 32.3286 207.096 32.7714C208.156 33.1405 208.913 33.5095 209.519 33.8047C210.049 34.1 210.504 34.469 210.882 34.8381C211.185 35.2071 211.337 35.7238 211.337 36.3143C211.337 37.2738 211.034 38.0119 210.428 38.6024C209.822 39.1928 208.989 39.5619 207.853 39.5619C206.718 39.5619 205.809 39.2667 205.279 38.6762C204.976 38.3071 204.749 37.9381 204.597 37.4952C204.295 36.5357 203.386 35.8714 202.326 35.8714H201.644C200.887 35.8714 200.206 36.2405 199.751 36.7571C199.297 37.3476 199.221 38.0119 199.373 38.75C199.524 39.2667 199.751 39.7833 200.054 40.2262C200.736 41.3333 201.72 42.219 203.083 42.8833C204.37 43.4738 205.96 43.8428 207.702 43.8428C209.368 43.8428 210.806 43.5476 212.094 42.9571C213.381 42.3667 214.365 41.6286 215.123 40.669C215.88 39.7095 216.41 38.6762 216.561 37.569C216.637 37.0524 216.713 36.4619 216.713 35.8714C216.713 34.5428 216.41 33.4357 215.728 32.55C215.123 31.7381 214.365 31.0738 213.457 30.5571C212.624 30.1143 211.564 29.6714 210.276 29.2286C209.292 28.8595 208.459 28.4905 207.929 28.269C207.399 28.0476 207.02 27.6786 206.642 27.3095C206.339 26.9405 206.188 26.5714 206.188 25.9809C206.188 25.0214 206.49 24.3571 207.096 23.9143C207.702 23.3976 208.535 23.1762 209.519 23.1762C210.579 23.1762 211.337 23.3976 211.867 23.9143C212.169 24.2095 212.321 24.5047 212.472 24.8738C212.775 25.7595 213.684 26.4238 214.668 26.4238H215.425C216.183 26.4238 216.94 26.0547 217.318 25.4643C218 24.6524 218.076 23.9143 217.849 23.25Z" fill="white"/>
<path d="M123.122 23.8405C122.213 22.2166 120.926 21.0357 119.26 20.15C117.594 19.2643 115.626 18.8214 113.354 18.8214C110.931 18.8214 108.811 19.3381 106.842 20.2976C104.873 21.2571 103.283 22.5857 101.996 24.3571C101.39 25.169 100.86 26.1286 100.481 27.0881C100.103 27.9738 99.4213 28.7119 98.5127 29.1547C98.3613 29.2286 98.2855 29.2286 98.1341 29.3024C97.7555 29.45 97.3012 29.45 96.8468 29.45H87.9875C87.0789 29.45 86.2459 29.7452 85.6402 30.4095C84.1257 32.0333 85.3373 34.1738 87.0789 34.1738H91.1678H92.1521C91.4707 35.5762 90.4863 36.6833 89.2748 37.4214C88.0632 38.1595 86.7003 38.6024 85.2616 38.6024C83.3685 38.6024 81.9299 38.1595 80.8698 37.2738C79.8854 36.3881 79.3553 35.0595 79.3553 33.3619C79.3553 32.6976 79.4311 32.0333 79.5068 31.4428C79.8854 29.3024 80.794 27.6047 82.157 26.35C83.52 25.0952 85.1858 24.5047 87.0789 24.5047C88.2904 24.5047 89.5776 24.7262 90.3349 25.2428C90.7892 25.5381 91.2435 25.9809 91.4707 26.4238C91.8493 27.0143 92.455 27.3095 93.1365 27.3095H95.5596C96.8468 27.3095 97.6798 26.1286 97.3012 24.9476C96.8468 23.5452 96.0139 22.3643 94.8781 21.3309C93.1365 19.7809 91.0163 19.0428 87.9875 19.0428C85.4887 19.0428 83.2171 19.5595 81.1726 20.5928C79.1282 21.6262 77.3866 23.0286 76.0236 24.8738C74.6607 26.719 73.752 28.7857 73.3734 31.1476C73.222 32.0333 73.1462 32.9928 73.1462 33.8786C73.1462 35.8714 73.6006 37.6428 74.4335 39.119C75.2664 40.5952 76.478 41.7762 78.0681 42.5881C79.6582 43.4 81.5512 43.8428 83.6714 43.8428C86.9274 43.8428 89.6534 43.1047 91.8493 41.6286C92.0007 41.5547 92.1522 41.4071 92.2279 41.3333C94.1209 39.9309 95.5596 38.0857 96.4682 35.9452C96.544 35.7238 96.6954 35.5024 96.9226 35.3547C97.4526 34.9119 98.437 34.9119 98.967 35.4286L99.0427 35.5024C99.2699 35.7238 99.3456 36.019 99.4213 36.3143C99.6485 37.2 99.9514 38.0119 100.406 38.8238C101.314 40.3738 102.602 41.6286 104.267 42.5143C105.933 43.4 107.978 43.8428 110.249 43.8428C112.597 43.8428 114.793 43.3262 116.686 42.3667C118.654 41.4071 120.245 40.0786 121.456 38.3071C122.743 36.6095 123.576 34.6166 123.955 32.3286C124.106 31.2952 124.258 30.3357 124.258 29.3762C124.485 27.3095 124.031 25.4643 123.122 23.8405ZM118.352 31.5167C117.973 33.5833 117.14 35.2071 115.777 36.3881C114.414 37.569 112.824 38.2333 110.931 38.2333C109.114 38.2333 107.751 37.7167 106.766 36.7571C105.782 35.7976 105.252 34.469 105.252 32.6976C105.252 32.2547 105.328 31.6643 105.403 31C105.782 28.9333 106.615 27.2357 107.978 26.0547C109.341 24.8738 110.931 24.2833 112.824 24.2833C114.565 24.2833 115.928 24.8 116.913 25.7595C117.897 26.719 118.352 28.0476 118.352 29.819C118.503 30.4095 118.427 31 118.352 31.5167Z" fill="white"/>
<path d="M40.2077 62H21.5047C9.69225 62 0 52.5524 0 41.0381V20.9619C0 9.44762 9.69225 0 21.5047 0H40.2077C52.0201 0 61.7124 9.44762 61.7124 20.9619V40.9643C61.7881 52.5524 52.0959 62 40.2077 62Z" fill="#E71D36"/>
<path d="M40.2077 62H21.5047C9.69225 62 0 52.5524 0 41.0381V20.9619C0 9.44762 9.69225 0 21.5047 0H40.2077C52.0201 0 61.7124 9.44762 61.7124 20.9619V40.9643C61.7881 52.5524 52.0959 62 40.2077 62Z" fill="url(#paint0_linear)"/>
<path d="M45.0538 31.9595L40.7377 32.1071C38.9962 32.1809 37.6332 33.5095 37.7089 35.1333L37.6332 39.2667C37.6332 40.1524 37.2546 43.0309 32.6356 43.1786C29.5311 43.2524 26.0479 43.2524 23.9277 41.2595C21.5047 38.8976 21.2018 34.3214 21.4289 30.9262C21.959 21.331 27.3352 20.9619 37.9361 21.1095C38.6176 21.1095 39.299 21.1095 39.9805 21.1095C41.2678 21.1095 42.8579 21.1833 44.2209 21.1833C46.0382 21.2571 47.5526 19.8548 47.4769 18.0833L47.3254 13.95C47.2497 12.4 45.9625 10.9976 44.3723 10.9238C42.9336 10.85 41.4192 10.85 40.0563 10.85C39.4505 10.85 38.8447 10.85 38.1632 10.85C33.6957 10.7762 27.3352 10.2595 22.0347 12.6214C18.7787 14.0238 16.2042 16.2381 14.3869 19.0429C12.4182 22.069 11.2824 25.8333 11.0552 30.3357C10.6009 38.2333 12.4182 44.2119 16.5071 48.1976C17.2643 48.9357 18.0215 49.5262 18.8544 50.1167C24.1549 53.5857 30.4397 53.2167 33.0899 53.1428C43.3122 52.8476 48.537 45.8357 48.3855 39.119V34.9119C48.1584 33.1405 46.7197 31.8857 45.0538 31.9595Z" fill="white"/>
<path opacity="0.65" d="M45.0538 31.9595L40.7377 32.1071C38.9962 32.1809 37.6332 33.5095 37.7089 35.1333L37.6332 39.2667C37.6332 40.1524 37.2546 43.0309 32.6356 43.1786C29.5311 43.2524 26.0479 43.2524 23.9277 41.2595C21.5047 38.8976 21.2018 34.3214 21.4289 30.9262C21.959 21.331 27.3352 20.9619 37.9361 21.1095C38.6176 21.1095 39.299 21.1095 39.9805 21.1095C41.2678 21.1095 42.8579 21.1833 44.2209 21.1833C46.0382 21.2571 47.5526 19.8548 47.4769 18.0833L47.3254 13.95C47.2497 12.4 45.9625 10.9976 44.3723 10.9238C42.9336 10.85 41.4192 10.85 40.0563 10.85C39.4505 10.85 38.8447 10.85 38.1632 10.85C33.6957 10.7762 27.3352 10.2595 22.0347 12.6214C18.7787 14.0238 16.2042 16.2381 14.3869 19.0429C12.4182 22.069 11.2824 25.8333 11.0552 30.3357C10.6009 38.2333 12.4182 44.2119 16.5071 48.1976C17.2643 48.9357 18.0215 49.5262 18.8544 50.1167C24.1549 53.5857 30.4397 53.2167 33.0899 53.1428C43.3122 52.8476 48.537 45.8357 48.3855 39.119V34.9119C48.1584 33.1405 46.7197 31.8857 45.0538 31.9595Z" fill="url(#paint1_linear)"/>
<path d="M10.7523 31.8119C10.6009 38.8976 12.4939 44.4333 16.2799 48.1238C16.8857 48.7143 17.4915 49.1572 18.0972 49.6L22.8676 40.3738L23.1705 40.2262C21.4289 37.7167 21.2775 33.8048 21.4289 30.7786C21.8075 24.8 23.9277 22.4381 28.0924 21.4786C23.0191 22.2905 13.554 24.6524 10.7523 31.8119Z" fill="white"/>
<path d="M18.1731 49.6C18.3245 49.7476 18.5517 49.8952 18.7031 49.969C22.6406 52.5524 27.1839 53.069 30.3641 53.069C36.7247 51.5929 37.5576 42.5881 37.6333 39.5619C37.4819 40.7428 36.7247 42.8833 32.6358 43.0309C29.5312 43.1047 26.0481 43.1048 23.9279 41.1119C23.625 40.8167 23.3978 40.5214 23.1707 40.2262L22.8678 40.3738L18.1731 49.6Z" fill="white"/>
<path d="M49.9 34.469L44.2967 28.4167C43.5395 27.6048 42.2522 27.6048 41.495 28.4167L35.8917 34.469C34.7559 35.65 35.6645 37.569 37.3304 37.569H37.7847V39.1929C37.7847 39.3405 37.7847 39.4881 37.7847 39.6357C37.4818 42.5881 36.7246 51.6667 30.2883 53.1429C31.3484 53.1429 32.1813 53.1429 32.8628 53.069C43.0851 52.7738 48.3099 45.7619 48.1584 39.0452V37.569H48.4613C50.1272 37.569 51.0358 35.65 49.9 34.469Z" fill="white"/>
<path opacity="0.65" d="M18.1731 49.6C18.3245 49.7476 18.5517 49.8952 18.7031 49.969C22.6406 52.5524 27.1839 53.069 30.3641 53.069C36.7247 51.5929 37.5576 42.5881 37.6333 39.5619C37.4819 40.7428 36.7247 42.8833 32.6358 43.0309C29.5312 43.1047 26.0481 43.1048 23.9279 41.1119C23.625 40.8167 23.3978 40.5214 23.1707 40.2262L22.8678 40.3738L18.1731 49.6Z" fill="url(#paint2_linear)"/>
<defs>
<linearGradient id="paint0_linear" x1="-15.2536" y1="-6.21498" x2="138.917" y2="124.669" gradientUnits="userSpaceOnUse">
<stop stop-color="#090909" stop-opacity="0"/>
<stop offset="1" stop-color="#1B147E" stop-opacity="0.8"/>
</linearGradient>
<linearGradient id="paint1_linear" x1="42.3902" y1="23.0447" x2="-10.0283" y2="66.0654" gradientUnits="userSpaceOnUse">
<stop stop-color="#090909" stop-opacity="0"/>
<stop offset="1" stop-color="#177CAA" stop-opacity="0.8"/>
</linearGradient>
<linearGradient id="paint2_linear" x1="26.9012" y1="46.3834" x2="43.83" y2="46.3834" gradientUnits="userSpaceOnUse">
<stop stop-color="#090909" stop-opacity="0"/>
<stop offset="1" stop-color="#177CAA" stop-opacity="0.8"/>
</linearGradient>
</defs>
</svg>
