<svg width="47" height="47" viewBox="0 0 47 47" fill="none" xmlns="http://www.w3.org/2000/svg">
<rect width="47" height="47" rx="14" fill="#02182B"/>
<path d="M15.09 23.5C15.09 21.619 16.619 20.09 18.5 20.09H22.9V18H18.5C15.464 18 13 20.464 13 23.5C13 26.536 15.464 29 18.5 29H22.9V26.91H18.5C16.619 26.91 15.09 25.381 15.09 23.5ZM19.6 24.6H28.4V22.4H19.6V24.6ZM29.5 18H25.1V20.09H29.5C31.381 20.09 32.91 21.619 32.91 23.5C32.91 25.381 31.381 26.91 29.5 26.91H25.1V29H29.5C32.536 29 35 26.536 35 23.5C35 20.464 32.536 18 29.5 18Z" fill="#F2F2F2"/>
</svg>
