<svg width="30" height="31" viewBox="0 0 30 31" fill="none" xmlns="http://www.w3.org/2000/svg">
<g clip-path="url(#clip0)">
<path d="M29.7322 6.15249C29.5156 6.00593 29.2296 6.01335 29.0213 6.17158C28.8104 6.33128 28.4681 6.46862 28.079 6.58125C29.1444 5.33747 29.1664 4.50599 29.1539 4.31027C29.1396 4.08832 29.0055 3.89172 28.8044 3.79695C28.6024 3.70283 28.3659 3.72513 28.1862 3.85564C26.9079 4.78451 25.6352 4.98684 24.8702 5.00944C23.6827 3.88004 22.1431 3.26099 20.5061 3.26099C16.9868 3.26099 14.1236 6.16207 14.1236 9.72781C14.1236 10.0165 14.1426 10.3046 14.1801 10.5903C8.1722 10.4881 3.29594 4.73716 3.24561 4.67667C3.11808 4.52386 2.92446 4.44071 2.72424 4.4598C2.52583 4.47709 2.34797 4.59031 2.24847 4.76279C0.554853 7.70113 1.58948 10.2938 2.6283 11.8472C2.52104 11.7834 2.43316 11.7247 2.37302 11.6803C2.1895 11.5439 1.94461 11.5212 1.73936 11.6222C1.53377 11.7235 1.40239 11.9309 1.39854 12.16C1.35264 14.9776 2.66935 16.6263 3.94869 17.5605C3.81019 17.5796 3.68027 17.6457 3.58282 17.7518C3.43625 17.9108 3.3847 18.1358 3.44787 18.3428C4.33506 21.2469 6.48658 22.2755 7.90734 22.6396C5.03336 24.8081 0.867943 24.1003 0.821756 24.0916C0.545568 24.0431 0.269147 24.1887 0.155636 24.4467C0.0424162 24.7044 0.119901 25.0065 0.343945 25.1772C3.40735 27.5152 7.07113 28.0333 9.71739 28.0333C11.7186 28.0333 13.1375 27.7368 13.274 27.7073C26.6231 24.5438 27.0462 12.3469 27.0188 10.2684C29.523 7.93691 29.9169 7.04201 29.9782 6.81943C30.0474 6.56753 29.9485 6.2994 29.7322 6.15249ZM25.9876 9.56005C25.8515 9.68518 25.7797 9.86572 25.7922 10.0504C25.7943 10.0832 25.9987 13.3891 24.5255 17.0728C22.5572 21.9946 18.6769 25.1731 13.0046 26.5173C12.9438 26.5301 7.69661 27.6168 3.09035 25.426C5.05957 25.3434 7.78665 24.7888 9.70554 22.6346C9.86582 22.4549 9.90395 22.1772 9.80533 21.9577C9.70671 21.7387 9.48774 21.5775 9.24764 21.5775C9.24647 21.5775 9.24525 21.5775 9.24349 21.5775C9.08234 21.5775 6.30429 21.5567 4.97321 18.8737C5.51152 18.8969 6.15504 18.8652 6.67367 18.6263C6.9126 18.5161 7.05379 18.2701 7.0243 18.0089C6.99481 17.7476 6.80119 17.5371 6.54375 17.4829C6.3945 17.4513 3.17758 16.7334 2.68161 13.2383C3.17583 13.4442 3.79191 13.6037 4.40472 13.5119C4.64009 13.4767 4.83284 13.3075 4.89952 13.079C4.96597 12.8508 4.89328 12.6043 4.71361 12.4479C4.57446 12.327 1.54142 9.62918 2.9303 6.14326C4.57446 7.85598 9.26335 12.1206 14.949 11.7947C15.1304 11.7842 15.2979 11.6931 15.4056 11.5465C15.5132 11.3999 15.5499 11.2131 15.5055 11.0369C15.3982 10.6097 15.3437 10.1694 15.3437 9.72786C15.3437 6.83484 17.6594 4.48129 20.506 4.48129C21.8981 4.48129 23.2038 5.03688 24.1829 6.04593C24.2951 6.16183 24.4489 6.22822 24.6104 6.23126C25.1743 6.23663 26.1029 6.17585 27.1522 5.78556C26.8393 6.15196 26.4018 6.58096 25.7898 7.06151C25.5783 7.22775 25.5006 7.51317 25.5985 7.76372C25.6969 8.01486 25.9522 8.17362 26.2155 8.14951C26.3388 8.1397 26.9367 8.08697 27.6374 7.94485C27.2359 8.37168 26.7006 8.90438 25.9876 9.56005Z" fill="#F2F2F2"/>
</g>
<defs>
<clipPath id="clip0">
<rect width="29.896" height="29.896" fill="white" transform="translate(0.104004 0.699219)"/>
</clipPath>
</defs>
</svg>
